<svg xmlns="http://www.w3.org/2000/svg" viewBox="264 192 497 605">
<g transform="translate(0.000000,1024.000000) scale(0.100000,-0.100000)"
fill="#03C77D" stroke="none">
<path d="M6386 7915 c-64 -22 -15 54 -446 -694 -252 -437 -274 -479 -274 -522
0 -54 21 -91 67 -119 44 -27 88 -25 227 10 65 17 126 30 134 30 14 0 16 -40
16 -352 0 -194 -5 -384 -10 -423 -31 -212 -123 -336 -303 -405 -107 -42 -172
-55 -402 -85 -589 -75 -995 -218 -1198 -420 -91 -91 -120 -153 -125 -266 -6
-120 19 -198 115 -361 92 -157 117 -218 110 -276 -7 -67 -53 -131 -117 -165
-50 -26 -62 -29 -131 -25 -125 7 -202 66 -265 203 -110 238 -125 580 -37 845
101 306 338 583 618 723 319 159 704 165 1045 15 64 -28 87 -32 155 -33 68 0
89 4 137 28 33 16 76 49 102 78 60 66 80 128 74 228 -8 139 -73 222 -232 296
-324 151 -744 194 -1127 116 -374 -77 -695 -259 -970 -549 -339 -358 -527
-857 -506 -1342 7 -165 36 -334 78 -466 44 -137 123 -319 166 -382 101 -147
331 -262 525 -262 29 0 96 7 148 15 321 48 606 208 736 412 63 98 83 189 64
293 -21 115 -59 173 -235 360 -91 96 -118 152 -123 248 -4 63 -1 80 22 127 64
130 272 263 546 349 123 38 303 81 385 91 47 5 44 3 -40 -28 -465 -173 -608
-419 -369 -635 35 -31 125 -95 200 -142 219 -136 314 -238 350 -380 41 -160
-23 -364 -173 -559 -32 -41 -114 -125 -183 -187 -155 -138 -190 -195 -190
-305 0 -128 55 -222 162 -279 54 -29 75 -35 149 -38 76 -4 95 -1 180 28 225
76 494 230 668 382 285 247 505 610 590 975 51 217 51 220 51 1424 0 619 2
1128 5 1131 3 3 63 -10 133 -28 70 -19 147 -34 172 -34 79 0 140 60 140 138 0
52 8 36 -210 412 -97 168 -234 405 -304 527 -71 121 -141 233 -156 248 -36 34
-96 46 -144 30z m-286 -3545 c-6 -52 -20 -131 -31 -175 -24 -92 -84 -243 -105
-265 -13 -13 -14 -13 -9 2 9 23 -11 148 -34 214 -45 126 -158 264 -288 352
-35 24 -129 77 -210 119 -169 87 -237 133 -258 174 -41 78 2 147 150 242 106
67 158 91 336 152 192 66 323 128 399 188 l55 43 3 -475 c2 -296 -1 -512 -8
-571z"/>
</g>
</svg>
